:SAMPLES-PER-SECOND 30
:FULLY-SPECIFIED
:DEGREES
123
root  76.8407 36.8347 3.55498 -155.593 -83.9947 156.47
RightUpLeg  9.46142 -12.2145 -5.2517
RightLeg  19.1058 -0.130115 0.670286
RightFoot  -27.6253 0.265121 3.14194
RightToes  -8.3237e-009 0 -3.6325e-017
Spine  3.09742 2.45131 10.8332
Spine1  5.78685 5.43989 -7.77535
HEad  -16.7132 -5.82633 -0.0562258
LeftShoulder1  -0.265081 4.17106 -33.5736
LeftArm  3.4833 14.8056 -37.1924
LeftForeArm  24.8822 -17.2193 -5.79021
LeftHand  -0.0232341 4.83387 -0.525136
RightShoulder  -0.743679 -5.49416 30.6792
RightArm  30.3358 3.35582 48.9688
RightForeArm  0.381282 17.7156 6.59547
RightHand  -0.217504 4.41296 -2.86761
LeftUpLeg  -5.52948 -8.16909 -2.92435
LeftLeg  163.2 -22.4213 -174.582
LeftFoot  -0.116182 2.09999 -21.1584
LeftToes  -1.18267e-011 3.61711e-011 9.57411e-011
124
root  75.9569 36.5162 3.62249 -153.158 -85.1417 153.92
RightUpLeg  9.83211 -12.9381 -5.63866
RightLeg  22.4576 0.569852 0.66997
RightFoot  -28.898 0.670251 5.60722
RightToes  -8.3237e-009 0 -3.6325e-017
Spine  2.41066 1.72182 10.4305
Spine1  5.98464 4.73139 -7.29641
HEad  -16.9533 -5.41253 0.798482
LeftShoulder1  -0.35512 4.39287 -33.8066
LeftArm  2.09732 14.9267 -36.8051
LeftForeArm  26.3985 -15.4015 -6.59322
LeftHand  -0.034898 7.12542 -0.128414
RightShoulder  -0.723862 -5.43435 30.791
RightArm  29.3667 3.77919 48.9742
RightForeArm  2.12323 16.1925 7.30397
RightHand  -0.239388 3.44162 -3.38887
LeftUpLeg  -6.98636 -8.26164 -3.11018
LeftLeg  159.326 -20.6014 -173.613
LeftFoot  0.831315 2.24571 -20.9117
LeftToes  -1.18267e-011 3.61711e-011 9.57411e-011
125
root  75.0042 36.3869 3.61052 -153.041 -84.8543 152.619
RightUpLeg  11.3471 -13.1268 -6.95872
RightLeg  25.5346 2.37297 1.07439
RightFoot  -28.5932 1.13996 8.79169
RightToes  -8.3237e-009 0 -3.6325e-017
Spine  2.28809 1.89152 9.41366
Spine1  6.93097 5.04071 -7.0739
HEad  -16.6525 -6.19406 0.921115
LeftShoulder1  -0.302555 4.25967 -33.8793
LeftArm  -1.76007 14.2886 -36.8177
LeftForeArm  31.2657 -11.9902 -7.53628
LeftHand  -0.11719 7.24173 -0.921516
RightShoulder  -0.708512 -5.39918 30.6648
RightArm  26.872 3.42296 48.962
RightForeArm  4.77579 14.3108 7.99397
RightHand  -0.267715 3.27787 -3.82431
LeftUpLeg  -6.42976 -6.39283 -4.15148
LeftLeg  158.735 -17.4781 -174.4
LeftFoot  -0.42651 2.05034 -21.2293
LeftToes  -1.18267e-011 3.61711e-011 9.57411e-011
126
root  74.1316 36.5214 3.64476 -148.464 -84.5363 147.318
RightUpLeg  11.5981 -11.893 -8.18068
RightLeg  29.1317 2.9268 1.49422
RightFoot  -25.987 1.55435 13.5645
RightToes  -8.3237e-009 0 -3.6325e-017
Spine  2.84617 1.96691 7.9532
Spine1  6.65202 5.08995 -7.52019
HEad  -15.4239 -6.98957 0.567486
LeftShoulder1  -0.295498 4.24361 -33.789
LeftArm  -4.88005 14.0661 -36.9837
LeftForeArm  34.201 -9.29797 -7.70445
LeftHand  -0.767652 16.9087 -6.81091
RightShoulder  -0.76203 -5.53152 30.8952
RightArm  25.0098 2.41318 48.4458
RightForeArm  7.13701 12.9159 8.38186
RightHand  -0.233263 3.18458 -3.39159
LeftUpLeg  -5.159 -5.82179 -5.4499
LeftLeg  158.587 -17.0192 -174.506
LeftFoot  -2.72502 1.49256 -19.5107
LeftToes  -1.18267e-011 3.61711e-011 9.57411e-011
127
root  73.3113 36.8467 3.67297 -143.757 -83.5635 142.747
RightUpLeg  9.29366 -9.42755 -9.1595
RightLeg  34.3619 2.66873 1.70496
RightFoot  -20.5877 1.34731 18.3834
RightToes  -8.3237e-009 0 -3.6325e-017
Spine  2.3039 2.14225 5.63499
Spine1  6.97609 4.89492 -7.6307
HEad  -14.7763 -6.67998 0.324865
LeftShoulder1  -0.356429 4.39403 -33.8757
LeftArm  -5.76254 14.5447 -37.1025
LeftForeArm  35.1562 -8.6878 -7.4664
LeftHand  -0.964703 16.592 -8.76055
RightShoulder  -0.697752 -5.38315 30.4197
RightArm  24.1137 1.93107 48.6728
RightForeArm  9.21507 11.548 8.88827
RightHand  -0.204341 3.18868 -2.99891
LeftUpLeg  -5.28339 -6.16993 -7.58284
LeftLeg  158.024 -17.434 -174.188
LeftFoot  -5.86672 0.741206 -13.6688
LeftToes  -1.18267e-011 3.61711e-011 9.57411e-011
128
root  72.5713 37.2324 3.68283 -142.019 -82.6739 141.004
RightUpLeg  4.97261 -7.4651 -9.9849
RightLeg  42.0296 2.32024 1.91983
RightFoot  -12.0603 0.128854 17.7532
RightToes  -8.3237e-009 0 -3.6325e-017
Spine  2.96933 2.26585 3.53116
Spine1  6.18572 4.62049 -7.80549
HEad  -14.555 -5.12423 0.693101
LeftShoulder1  -0.327558 4.32845 -33.5591
LeftArm  -5.49314 14.8271 -37.4809
LeftForeArm  35.3714 -8.90681 -7.52106
LeftHand  -0.648455 13.547 -7.33965
RightShoulder  -0.725168 -5.45606 30.4548
RightArm  25.3109 1.09792 48.2776
RightForeArm  9.30855 11.8651 8.91867
RightHand  -0.248826 3.66028 -3.44875
LeftUpLeg  -4.49061 -6.08943 -8.77852
LeftLeg  157.367 -19.7014 -173.093
LeftFoot  -10.9163 0.0335037 -4.67866
LeftToes  -1.18267e-011 3.61711e-011 9.57411e-011
129
root  71.8638 37.8461 3.65444 -136.756 -81.109 135.461
RightUpLeg  0.467172 -5.47712 -11.4936
RightLeg  48.2093 1.74892 1.79175
RightFoot  -2.10782 -1.03987 12.0798
RightToes  -8.3237e-009 0 -3.6325e-017
Spine  4.17573 2.64032 -0.624126
Spine1  5.8222 4.13277 -7.36466
HEad  -16.2416 -2.09173 1.88531
LeftShoulder1  -0.5585 4.89912 -33.8654
LeftArm  -4.13491 13.7867 -37.4034
LeftForeArm  34.5012 -9.05414 -7.93357
LeftHand  -0.112586 8.46624 -2.98451
RightShoulder  -0.772006 -5.57238 30.6415
RightArm  26.7838 0.375135 47.4445
RightForeArm  8.00253 13.295 8.4004
RightHand  -0.23842 3.60518 -3.33024
LeftUpLeg  -3.33567 -5.75394 -10.4054
LeftLeg  153.352 -24.3614 -169.645
LeftFoot  -13.7934 0.166181 2.74084
LeftToes  -1.18267e-011 3.61711e-011 9.57411e-011
130
root  71.1845 37.8064 3.67521 -140.25 -80.7444 138.534
RightUpLeg  -3.97282 -4.09296 -11.6722
RightLeg  54.9003 2.31822 3.15615
RightFoot  -1.82277 -0.967092 11.4159
RightToes  -8.3237e-009 0 -3.6325e-017
Spine  6.94426 2.44971 -1.42373
Spine1  2.90055 3.55301 -7.03089
HEad  -16.0968 -2.28125 1.17539
LeftShoulder1  -0.63569 5.07746 -34.2577
LeftArm  -0.241428 14.1014 -36.3338
LeftForeArm  31.4922 -11.4254 -8.2271
LeftHand  -0.102645 7.62252 -2.9242
RightShoulder  -0.839886 -5.72388 31.1942
RightArm  28.0037 -0.769016 46.345
RightForeArm  6.65843 14.3969 7.94894
RightHand  -0.159741 3.76902 -2.28682
LeftUpLeg  -1.71722 -5.05755 -10.6815
LeftLeg  153.089 -29.1699 -167.415
LeftFoot  -21.3159 1.80382 17.5776
LeftToes  -1.18267e-011 3.61711e-011 9.57411e-011
131
root  70.4711 37.7579 3.70467 -144.248 -81.4292 142.139
RightUpLeg  -7.77837 -3.82621 -11.1385
RightLeg  58.7584 2.88927 4.64935
RightFoot  -3.67054 -0.806082 11.6277
RightToes  -8.3237e-009 0 -3.6325e-017
Spine  8.14495 2.07831 -1.28624
Spine1  1.48031 2.95766 -5.54292
HEad  -15.5303 -2.72215 0.415294
LeftShoulder1  -0.489804 4.69502 -34.9274
LeftArm  0.941549 13.2868 -35.8525
LeftForeArm  30.9302 -12.0742 -8.16878
LeftHand  -0.0506206 6.03042 -2.57341
RightShoulder  -0.7672 -5.55864 30.6503
RightArm  27.4604 -2.39608 46.1617
RightForeArm  5.35573 15.2414 7.41202
RightHand  -0.220559 3.91492 -3.01468
LeftUpLeg  1.45828 -3.98741 -10.4199
LeftLeg  153.745 -37.0136 -164.699
LeftFoot  -29.9407 6.19592 35.842
LeftToes  -1.18267e-011 3.61711e-011 9.57411e-011
132
root  69.7747 37.6177 3.72968 -151.71 -82.3214 149.506
RightUpLeg  -11.4974 -3.60466 -9.88549
RightLeg  60.0187 2.58388 4.34906
RightFoot  -5.32511 -0.649965 11.5974
RightToes  -8.3237e-009 0 -3.6325e-017
Spine  5.66806 1.55473 -0.186149
Spine1  5.47482 2.67777 -4.02075
HEad  -16.3055 -2.32553 -0.265097
LeftShoulder1  -0.35018 4.36371 -34.5281
LeftArm  -0.432007 10.2642 -37.7242
LeftForeArm  31.1339 -11.9294 -7.99183
LeftHand  -0.0883305 7.40887 -2.45409
RightShoulder  -0.683791 -5.37428 29.8601
RightArm  24.476 -1.63593 47.5124
RightForeArm  6.80496 14.5754 7.3516
RightHand  -0.234435 4.15069 -3.11102
LeftUpLeg  2.24671 -2.74777 -9.51036
LeftLeg  155.536 -43.1534 -163.733
LeftFoot  -36.5357 9.68571 40.8905
LeftToes  -1.18267e-011 3.61711e-011 9.57411e-011
133
root  69.0868 37.4757 3.7885 -163.121 -82.7259 160.901
RightUpLeg  -14.938 -3.83717 -8.68127
RightLeg  58.7078 2.03367 3.14926
RightFoot  -7.01678 -0.449908 10.6695
RightToes  -8.3237e-009 0 -3.6325e-017
Spine  5.83458 0.967091 2.09306
Spine1  5.5253 2.4595 -3.73089
HEad  -15.4033 -4.41435 -1.53617
LeftShoulder1  -0.24518 4.11803 -33.8163
LeftArm  0.0770493 9.03169 -38.7087
LeftForeArm  30.1676 -13.0127 -7.58075
LeftHand  -0.0523269 7.2945 -0.715784
RightShoulder  -0.732997 -5.49138 30.1923
RightArm  23.9298 -1.8191 47.5277
RightForeArm  7.57878 14.7466 7.13633
RightHand  -0.147459 2.27547 -2.4454
LeftUpLeg  4.45453 -1.24969 -7.65156
LeftLeg  156.61 -53.7132 -161.643
LeftFoot  -43.5756 10.1557 33.3434
LeftToes  -1.18267e-011 3.61711e-011 9.57411e-011
134
root  68.3913 37.2168 3.86079 -177.667 -82.8087 175.347
RightUpLeg  -17.8612 -3.63956 -7.12647
RightLeg  55.5259 1.35835 1.69615
RightFoot  -9.07311 -0.274069 10.6223
RightToes  -8.3237e-009 0 -3.6325e-017
Spine  6.79733 0.324243 4.70767
Spine1  4.69423 1.99928 -3.07172
HEad  -14.2469 -2.79433 -1.65974
LeftShoulder1  -0.223152 4.06202 -33.8916
LeftArm  2.02456 8.34683 -38.7353
LeftForeArm  26.9955 -15.2998 -6.71405
LeftHand  -0.0637128 7.38735 -1.21384
RightShoulder  -0.870386 -5.83271 30.7635
RightArm  23.2873 -1.35111 47.092
RightForeArm  7.69752 13.6302 7.60898
RightHand  -0.182925 4.42728 -2.44067
LeftUpLeg  5.50437 -0.17945 -6.00087
LeftLeg  159.225 -63.5583 -161.993
LeftFoot  -47.9798 7.68787 22.1046
LeftToes  -1.18267e-011 3.61711e-011 9.57411e-011
